HIERARCHY
ROOT hip
{
  OFFSET 5.70873 43.8894 -1.52928
  CHANNELS 6 Xposition Yposition Zposition Zrotation Xrotation Yrotation
  JOINT abdomen
  {
    OFFSET 0 5.99393 0.287273
    CHANNELS 6 Xposition Yposition Zposition Zrotation Xrotation Yrotation
    JOINT chest
    {
      OFFSET 0 6.65865 -0.856112
      CHANNELS 6 Xposition Yposition Zposition Zrotation Xrotation Yrotation
      JOINT neck
      {
        OFFSET 0 8.65624 -1.42685
        CHANNELS 6 Xposition Yposition Zposition Zrotation Xrotation Yrotation
        JOINT head
        {
          OFFSET 0 3.80999 -0.190247
          CHANNELS 6 Xposition Yposition Zposition Zrotation Xrotation Yrotation
          End Site
          {
            OFFSET 0 0 0
          }
        }
      }
      JOINT rCollar
      {
        OFFSET -1.4963 7.5744 -1.52136
        CHANNELS 6 Xposition Yposition Zposition Zrotation Xrotation Yrotation
        JOINT rShldr
        {
          OFFSET -5.47506 -0.905672 0.485692
          CHANNELS 6 Xposition Yposition Zposition Zrotation Xrotation Yrotation
          JOINT rForeArm
          {
            OFFSET -11.3069 -0.201091 0.618544
            CHANNELS 6 Xposition Yposition Zposition Zrotation Xrotation Yrotation
            JOINT rHand
            {
              OFFSET -9.61414 -0.254739 3.48553
              CHANNELS 6 Xposition Yposition Zposition Zrotation Xrotation Yrotation
              JOINT rThumb1
              {
                OFFSET 0.176263 -0.07068 1.26622
                CHANNELS 6 Xposition Yposition Zposition Zrotation Xrotation Yrotation
                JOINT rThumb2
                {
                  OFFSET -1.04683 -0.546484 1.82182
                  CHANNELS 6 Xposition Yposition Zposition Zrotation Xrotation Yrotation
                  JOINT rThumb3
                  {
                    OFFSET -0.993472 -0.621916 0.655506
                    CHANNELS 6 Xposition Yposition Zposition Zrotation Xrotation Yrotation
                    End Site
                    {
                      OFFSET -0.996134 -0.66263 0.644615
                    }
                  }
                }
              }
              JOINT rIndex1
              {
                OFFSET -2.64253 0.566363 2.4162
                CHANNELS 6 Xposition Yposition Zposition Zrotation Xrotation Yrotation
                JOINT rIndex2
                {
                  OFFSET -1.39394 -0.635138 0.899356
                  CHANNELS 6 Xposition Yposition Zposition Zrotation Xrotation Yrotation
                  JOINT rIndex3
                  {
                    OFFSET -0.622395 -0.856016 0.402182
                    CHANNELS 6 Xposition Yposition Zposition Zrotation Xrotation Yrotation
                    End Site
                    {
                      OFFSET -0.472476 -0.801802 0.34216
                    }
                  }
                }
              }
              JOINT rMid1
              {
                OFFSET -3.20814 0.514427 1.52547
                CHANNELS 6 Xposition Yposition Zposition Zrotation Xrotation Yrotation
                JOINT rMid2
                {
                  OFFSET -1.56545 -0.497974 0.68919
                  CHANNELS 6 Xposition Yposition Zposition Zrotation Xrotation Yrotation
                  JOINT rMid3
                  {
                    OFFSET -0.679943 -1.17582 0.444246
                    CHANNELS 6 Xposition Yposition Zposition Zrotation Xrotation Yrotation
                    End Site
                    {
                      OFFSET -0.343874 -0.941341 0.267611
                    }
                  }
                }
              }
              JOINT rRing1
              {
                OFFSET -3.47877 0.200518 0.597719
                CHANNELS 6 Xposition Yposition Zposition Zrotation Xrotation Yrotation
                JOINT rRing2
                {
                  OFFSET -1.28208 -0.53155 0.44672
                  CHANNELS 6 Xposition Yposition Zposition Zrotation Xrotation Yrotation
                  JOINT rRing3
                  {
                    OFFSET -0.710288 -0.970167 0.4032
                    CHANNELS 6 Xposition Yposition Zposition Zrotation Xrotation Yrotation
                    End Site
                    {
                      OFFSET -0.403228 -0.950952 0.378354
                    }
                  }
                }
              }
              JOINT rPinky1
              {
                OFFSET -3.42483 -0.278904 -0.240415
                CHANNELS 6 Xposition Yposition Zposition Zrotation Xrotation Yrotation
                JOINT rPinky2
                {
                  OFFSET -1.05787 -0.635999 0.156459
                  CHANNELS 6 Xposition Yposition Zposition Zrotation Xrotation Yrotation
                  JOINT rPinky3
                  {
                    OFFSET -0.42815 -0.754232 0.287187
                    CHANNELS 6 Xposition Yposition Zposition Zrotation Xrotation Yrotation
                    End Site
                    {
                      OFFSET -0.235717 -0.725605 0.279416
                    }
                  }
                }
              }
            }
          }
        }
      }
      JOINT lCollar
      {
        OFFSET 1.4963 7.5744 -1.52136
        CHANNELS 6 Xposition Yposition Zposition Zrotation Xrotation Yrotation
        JOINT lShldr
        {
          OFFSET 5.47506 -0.905672 0.485692
          CHANNELS 6 Xposition Yposition Zposition Zrotation Xrotation Yrotation
          JOINT lForeArm
          {
            OFFSET 11.3069 -0.201091 0.618544
            CHANNELS 6 Xposition Yposition Zposition Zrotation Xrotation Yrotation
            JOINT lHand
            {
              OFFSET 9.61414 -0.254739 3.48553
              CHANNELS 6 Xposition Yposition Zposition Zrotation Xrotation Yrotation
              JOINT lThumb1
              {
                OFFSET -0.176263 -0.07068 1.26622
                CHANNELS 6 Xposition Yposition Zposition Zrotation Xrotation Yrotation
                JOINT lThumb2
                {
                  OFFSET 1.04683 -0.546484 1.82182
                  CHANNELS 6 Xposition Yposition Zposition Zrotation Xrotation Yrotation
                  JOINT lThumb3
                  {
                    OFFSET 0.993472 -0.621916 0.655506
                    CHANNELS 6 Xposition Yposition Zposition Zrotation Xrotation Yrotation
                    End Site
                    {
                      OFFSET 0.996134 -0.66263 0.644615
                    }
                  }
                }
              }
              JOINT lIndex1
              {
                OFFSET 2.64253 0.566363 2.4162
                CHANNELS 6 Xposition Yposition Zposition Zrotation Xrotation Yrotation
                JOINT lIndex2
                {
                  OFFSET 1.39394 -0.635138 0.899356
                  CHANNELS 6 Xposition Yposition Zposition Zrotation Xrotation Yrotation
                  JOINT lIndex3
                  {
                    OFFSET 0.622395 -0.856016 0.402182
                    CHANNELS 6 Xposition Yposition Zposition Zrotation Xrotation Yrotation
                    End Site
                    {
                      OFFSET 0.472476 -0.801802 0.34216
                    }
                  }
                }
              }
              JOINT lMid1
              {
                OFFSET 3.20814 0.514427 1.52547
                CHANNELS 6 Xposition Yposition Zposition Zrotation Xrotation Yrotation
                JOINT lMid2
                {
                  OFFSET 1.56545 -0.497974 0.68919
                  CHANNELS 6 Xposition Yposition Zposition Zrotation Xrotation Yrotation
                  JOINT lMid3
                  {
                    OFFSET 0.679943 -1.17582 0.444246
                    CHANNELS 6 Xposition Yposition Zposition Zrotation Xrotation Yrotation
                    End Site
                    {
                      OFFSET 0.343874 -0.941341 0.267611
                    }
                  }
                }
              }
              JOINT lRing1
              {
                OFFSET 3.47877 0.200518 0.597719
                CHANNELS 6 Xposition Yposition Zposition Zrotation Xrotation Yrotation
                JOINT lRing2
                {
                  OFFSET 1.28208 -0.53155 0.44672
                  CHANNELS 6 Xposition Yposition Zposition Zrotation Xrotation Yrotation
                  JOINT lRing3
                  {
                    OFFSET 0.710288 -0.970167 0.4032
                    CHANNELS 6 Xposition Yposition Zposition Zrotation Xrotation Yrotation
                    End Site
                    {
                      OFFSET 0.403228 -0.950952 0.378354
                    }
                  }
                }
              }
              JOINT lPinky1
              {
                OFFSET 3.42483 -0.278904 -0.240415
                CHANNELS 6 Xposition Yposition Zposition Zrotation Xrotation Yrotation
                JOINT lPinky2
                {
                  OFFSET 1.05787 -0.635999 0.156459
                  CHANNELS 6 Xposition Yposition Zposition Zrotation Xrotation Yrotation
                  JOINT lPinky3
                  {
                    OFFSET 0.42815 -0.754232 0.287187
                    CHANNELS 6 Xposition Yposition Zposition Zrotation Xrotation Yrotation
                    End Site
                    {
                      OFFSET 0.235717 -0.725605 0.279416
                    }
                  }
                }
              }
            }
          }
        }
      }
    }
  }
  JOINT rThigh
  {
    OFFSET -4.17848 -1.02486 0.046356
    CHANNELS 6 Xposition Yposition Zposition Zrotation Xrotation Yrotation
    JOINT rShin
    {
      OFFSET 1.27155 -17.465 -0.237699
      CHANNELS 6 Xposition Yposition Zposition Zrotation Xrotation Yrotation
      JOINT rFoot
      {
        OFFSET 0.529163 -17.3815 -1.19582
        CHANNELS 6 Xposition Yposition Zposition Zrotation Xrotation Yrotation
        JOINT rToe
        {
          OFFSET -0.711591 -4.4863 4.0596
          CHANNELS 6 Xposition Yposition Zposition Zrotation Xrotation Yrotation
          End Site
          {
            OFFSET -0.869915 -1.10655 1.99006
          }
        }
      }
    }
  }
  JOINT lThigh
  {
    OFFSET 4.17848 -1.02486 0.046356
    CHANNELS 6 Xposition Yposition Zposition Zrotation Xrotation Yrotation
    JOINT lShin
    {
      OFFSET -1.27155 -17.465 -0.237699
      CHANNELS 6 Xposition Yposition Zposition Zrotation Xrotation Yrotation
      JOINT lFoot
      {
        OFFSET -0.529163 -17.3815 -1.19582
        CHANNELS 6 Xposition Yposition Zposition Zrotation Xrotation Yrotation
        JOINT lToe
        {
          OFFSET 0.711591 -4.4863 4.0596
          CHANNELS 6 Xposition Yposition Zposition Zrotation Xrotation Yrotation
          End Site
          {
            OFFSET 0.869915 -1.10655 1.99006
          }
        }
      }
    }
  }
}
MOTION
Frames:	4
Frame Time:	0.0333333
-16.9668 42.868 -22.8232 -0.635287 6.14509 101.884 0 5.99393 0.287273 0.0206625 -3.58799 1.70382 0 6.65865 -0.856112 0.148893 -7.17376 3.41904 -3.55271e-015 8.65624 -1.42685 -0.570568 13.6137 -8.57516 3.55271e-015 3.80999 -0.190247 -6.33082 -1.10015 -8.80724 -1.4963 7.5744 -1.52136 -43.5806 -1.20684 5.58143 -5.47506 -0.905672 0.485692 -7.91377 -42.054 -3.66487 -11.3069 -0.201091 0.618544 2.07448 -34.9782 9.81172 -9.61414 -0.254739 3.48553 9.33478 -20.4716 -7.7117 0.176263 -0.07068 1.26622 -15.687 50.412 18.5116 -1.04683 -0.546484 1.82182 -0.515946 0.55762 -1.56016 -0.993472 -0.621916 0.655506 -2.72965 3.35529 -8.82948 -2.64253 0.566363 2.4162 -23.6212 5.47093 -14.5209 -1.39394 -0.635138 0.899356 39.8961 7.70396 -8.81744 -0.622395 -0.856016 0.402182 39.2014 7.62944 -8.62656 -3.20814 0.514427 1.52547 -0.840483 5.94958 -9.82427 -1.56545 -0.497974 0.68919 52.7411 10.533 -13.0893 -0.679943 -1.17582 0.444246 44.481 9.78102 -10.5178 -3.47877 0.200518 0.597719 16.3707 -0.644948 -5.84618 -1.28208 -0.53155 0.44672 37.8363 9.71771 -10.3215 -0.710288 -0.970167 0.4032 39.1355 9.91105 -10.7659 -3.42483 -0.278904 -0.240415 24.5435 -1.90435 -2.26386 -1.05787 -0.635999 0.156459 31.0686 9.47881 -7.89265 -0.42815 -0.754232 0.287187 30.9985 9.46351 -7.86995 1.4963 7.5744 -1.52136 0.496447 0.856022 8.23865 5.47506 -0.905672 0.485692 -75.3947 -1.15726 30.862 11.3069 -0.201091 0.618544 1.29097 6.7674 -11.9961 9.61414 -0.254739 3.48553 -21.6355 -37.5599 0.727034 -0.176263 -0.07068 1.26622 0.000324414 0.000329288 3.00111e-006 1.04683 -0.546484 1.82182 -0.0002226 -0.000231015 1.94975e-005 0.993472 -0.621916 0.655506 -0.000186722 3.93607e-005 2.18708e-005 2.64253 0.566363 2.4162 -7.95475e-005 -0.000100038 0.00019006 1.39394 -0.635138 0.899356 0.000362461 0.000154904 -3.90518e-006 0.622395 -0.856016 0.402182 -0.000184071 1.44691e-005 2.34366e-005 3.20814 0.514427 1.52547 2.09793 -0.815568 -0.83193 1.56545 -0.497974 0.68919 2.09899 -0.816079 -0.832331 0.679943 -1.17582 0.444246 2.09906 -0.816179 -0.832663 3.47877 0.200518 0.597719 2.14282 -3.85045 -5.50197 1.28208 -0.53155 0.44672 4.62103 -2.03842 -2.04494 0.710288 -0.970167 0.4032 4.62131 -2.03843 -2.045 3.42483 -0.278904 -0.240415 11.3293 -5.71361 -4.61081 1.05787 -0.635999 0.156459 4.05248 -1.91412 -1.75639 0.42815 -0.754232 0.287187 2.84277 -1.32697 -1.2434 -4.17848 -1.02486 0.046356 -2.14469 -19.799 44.7713 1.27155 -17.465 -0.237699 9.1337 39.7374 -1.70078 0.529163 -17.3815 -1.19582 -12.8083 8.83453 -21.2768 -0.711591 -4.4863 4.0596 25.1425 -2.61767 -8.18795 4.17848 -1.02486 0.046356 -20.3969 2.9422 -1.41147 -1.27155 -17.465 -0.237699 0.48659 -3.16369 0.933197 -0.529163 -17.3815 -1.19582 9.35537 0.313336 -6.28032 0.711591 -4.4863 4.0596 5.83441 4.89979 -1.08933 
-16.598 42.9351 -22.7356 0.160882 5.70579 102.668 3.55271e-015 5.99393 0.287273 0.101444 -3.21765 1.35919 0 6.65865 -0.856112 0.280103 -6.43197 2.73055 7.10543e-015 8.65624 -1.42685 -0.715016 13.9451 -9.20715 0 3.80999 -0.190247 -5.60058 -1.01923 -9.31153 -1.4963 7.5744 -1.52136 -43.4194 -1.185 4.18541 -5.47506 -0.905672 0.485692 -6.80852 -42.6277 -3.07184 -11.3069 -0.201091 0.618544 2.95446 -37.2849 11.2723 -9.61414 -0.254739 3.48553 9.15044 -17.9297 -8.31841 0.176263 -0.07068 1.26622 -15.6915 50.4086 18.5178 -1.04683 -0.546484 1.82182 -0.514835 0.556381 -1.55675 -0.993472 -0.621916 0.655506 -2.73047 3.35648 -8.8324 -2.64253 0.566363 2.4162 -23.6126 5.47129 -14.5195 -1.39394 -0.635138 0.899356 39.8988 7.70423 -8.81816 -0.622395 -0.856016 0.402182 39.204 7.62972 -8.62729 -3.20814 0.514427 1.52547 -0.836993 5.9471 -9.82063 -1.56545 -0.497974 0.68919 52.7411 10.533 -13.0893 -0.679943 -1.17582 0.444246 44.4669 9.77944 -10.5135 -3.47877 0.200518 0.597719 16.369 -0.64537 -5.84588 -1.28208 -0.53155 0.44672 37.831 9.71689 -10.3197 -0.710288 -0.970167 0.4032 39.1303 9.9103 -10.7641 -3.42483 -0.278904 -0.240415 24.5334 -1.90568 -2.26435 -1.05787 -0.635999 0.156459 31.0677 9.47863 -7.89238 -0.42815 -0.754232 0.287187 30.9947 9.46267 -7.86869 1.4963 7.5744 -1.52136 -0.0355564 0.858634 8.03579 5.47506 -0.905672 0.485692 -73.0521 -2.07052 31.1035 11.3069 -0.201091 0.618544 0.797529 4.82212 -11.3386 9.61414 -0.254739 3.48553 -21.5636 -35.5367 1.68363 -0.176263 -0.07068 1.26622 -0.0246405 -0.00703303 -0.0445658 1.04683 -0.546484 1.82182 -0.000254044 -0.000248723 2.25738e-005 0.993472 -0.621916 0.655506 -0.015464 -0.00450615 -0.0272312 2.64253 0.566363 2.4162 0.0554939 -0.0262162 -0.0535477 1.39394 -0.635138 0.899356 0.0552925 -0.0182674 -0.0219583 0.622395 -0.856016 0.402182 0.0609712 -0.0204779 -0.0244198 3.20814 0.514427 1.52547 2.14899 -0.835878 -0.851845 1.56545 -0.497974 0.68919 2.15003 -0.836367 -0.852255 0.679943 -1.17582 0.444246 2.1559 -0.853186 -0.863255 3.47877 0.200518 0.597719 2.19121 -3.85988 -5.50402 1.28208 -0.53155 0.44672 4.65915 -2.05605 -2.06121 0.710288 -0.970167 0.4032 4.65935 -2.05601 -2.06131 3.42483 -0.278904 -0.240415 11.363 -5.69467 -4.57093 1.05787 -0.635999 0.156459 4.09263 -1.93382 -1.77325 0.42815 -0.754232 0.287187 2.88828 -1.34883 -1.26286 -4.17848 -1.02486 0.046356 0.719283 -24.2401 44.7671 1.27155 -17.465 -0.237699 14.4631 49.4428 -5.83798 0.529163 -17.3815 -1.19582 -10.8653 10.5284 -18.3002 -0.711591 -4.4863 4.0596 24.3427 -3.03451 -7.66276 4.17848 -1.02486 0.046356 -19.385 4.26985 -0.988574 -1.27155 -17.465 -0.237699 0.448069 -3.03327 0.789406 -0.529163 -17.3815 -1.19582 8.7437 0.474197 -6.84934 0.711591 -4.4863 4.0596 5.89238 4.37941 -1.00898 
-16.0016 43.0619 -22.6015 0.871958 5.51718 103.309 0 5.99393 0.287273 -0.0321229 -2.77697 0.91043 0 6.65865 -0.856112 -0.0200373 -5.5541 1.82249 3.55271e-015 8.65624 -1.42685 -0.901222 14.2402 -9.93009 0 3.80999 -0.190247 -4.45584 -0.850054 -10.0369 -1.4963 7.5744 -1.52136 -43.0743 -1.16782 3.34362 -5.47506 -0.905672 0.485692 -5.49801 -43.2474 -3.94598 -11.3069 -0.201091 0.618544 5.66938 -41.8816 15.8654 -9.61414 -0.254739 3.48553 8.14504 -12.9462 -10.1788 0.176263 -0.07068 1.26622 -15.696 50.4053 18.5239 -1.04683 -0.546484 1.82182 -0.513729 0.555143 -1.55333 -0.993472 -0.621916 0.655506 -2.7313 3.35767 -8.83534 -2.64253 0.566363 2.4162 -23.604 5.47165 -14.5181 -1.39394 -0.635138 0.899356 39.9015 7.70452 -8.81891 -0.622395 -0.856016 0.402182 39.2067 7.62999 -8.62802 -3.20814 0.514427 1.52547 -0.833464 5.94464 -9.81699 -1.56545 -0.497974 0.68919 52.7411 10.533 -13.0893 -0.679943 -1.17582 0.444246 44.4529 9.77783 -10.5092 -3.47877 0.200518 0.597719 16.3672 -0.645791 -5.84559 -1.28208 -0.53155 0.44672 37.8257 9.71609 -10.3179 -0.710288 -0.970167 0.4032 39.125 9.90955 -10.7623 -3.42483 -0.278904 -0.240415 24.5233 -1.90701 -2.26485 -1.05787 -0.635999 0.156459 31.0669 9.47846 -7.89212 -0.42815 -0.754232 0.287187 30.9909 9.46183 -7.86745 1.4963 7.5744 -1.52136 -0.317291 0.871196 7.10504 5.47506 -0.905672 0.485692 -70.4669 -2.78624 31.6387 11.3069 -0.201091 0.618544 0.799249 3.74752 -10.7623 9.61414 -0.254739 3.48553 -22.5919 -35.2209 2.45896 -0.176263 -0.07068 1.26622 -0.0971999 -0.0285079 -0.173652 1.04683 -0.546484 1.82182 -0.000265551 -0.000268024 4.34066e-005 0.993472 -0.621916 0.655506 -0.059787 -0.0175911 -0.106196 2.64253 0.566363 2.4162 0.216339 -0.101911 -0.209144 1.39394 -0.635138 0.899356 0.214332 -0.0717078 -0.0854412 0.622395 -0.856016 0.402182 0.238155 -0.0800434 -0.0951523 3.20814 0.514427 1.52547 2.2969 -0.894732 -0.909491 1.56545 -0.497974 0.68919 2.29787 -0.895194 -0.909916 0.679943 -1.17582 0.444246 2.29793 -0.895318 -0.910244 3.47877 0.200518 0.597719 2.33138 -3.88732 -5.50991 1.28208 -0.53155 0.44672 4.76946 -2.10712 -2.10837 0.710288 -0.970167 0.4032 4.76969 -2.10709 -2.10844 3.42483 -0.278904 -0.240415 11.4684 -5.65199 -4.46508 1.05787 -0.635999 0.156459 4.20888 -1.99101 -1.82196 0.42815 -0.754232 0.287187 3.0201 -1.41218 -1.31913 -4.17848 -1.02486 0.046356 2.51957 -27.9214 44.4135 1.27155 -17.465 -0.237699 19.8329 56.6002 -10.7104 0.529163 -17.3815 -1.19582 -8.27032 12.4202 -15.1692 -0.711591 -4.4863 4.0596 22.3436 -2.85988 -6.91286 4.17848 -1.02486 0.046356 -18.4804 5.93141 -0.145042 -1.27155 -17.465 -0.237699 0.393634 -3.13218 0.614117 -0.529163 -17.3815 -1.19582 8.07034 0.676305 -7.59273 0.711591 -4.4863 4.0596 5.92193 4.11654 -0.968259 
-15.2428 43.2251 -22.3305 1.64984 5.1709 103.766 -3.55271e-015 5.99393 0.287273 -0.176659 -2.30015 0.39867 0 6.65865 -0.856112 -0.337691 -4.60146 0.79119 3.55271e-015 8.65624 -1.42685 -1.1557 14.5521 -11.0021 0 3.80999 -0.190247 -3.10662 -0.638862 -10.5912 -1.4963 7.5744 -1.52136 -42.5801 -1.1428 2.19613 -5.47506 -0.905672 0.485692 -3.44384 -43.8349 -4.38199 -11.3069 -0.201091 0.618544 8.93205 -46.3738 21.8482 -9.61414 -0.254739 3.48553 7.39957 -7.92425 -12.4165 0.176263 -0.07068 1.26622 -15.7004 50.4019 18.53 -1.04683 -0.546484 1.82182 -0.512631 0.553888 -1.54991 -0.993472 -0.621916 0.655506 -2.73211 3.35887 -8.83826 -2.64253 0.566363 2.4162 -23.5953 5.472 -14.5167 -1.39394 -0.635138 0.899356 39.9042 7.7048 -8.81965 -0.622395 -0.856016 0.402182 39.2093 7.63028 -8.62874 -3.20814 0.514427 1.52547 -0.829947 5.94215 -9.81335 -1.56545 -0.497974 0.68919 52.7411 10.533 -13.0893 -0.679943 -1.17582 0.444246 44.4388 9.77625 -10.5049 -3.47877 0.200518 0.597719 16.3655 -0.646178 -5.8453 -1.28208 -0.53155 0.44672 37.8203 9.71527 -10.316 -0.710288 -0.970167 0.4032 39.1198 9.90879 -10.7605 -3.42483 -0.278904 -0.240415 24.5133 -1.90835 -2.26537 -1.05787 -0.635999 0.156459 31.0631 9.47762 -7.89087 -0.42815 -0.754232 0.287187 30.987 9.46097 -7.8662 1.4963 7.5744 -1.52136 -0.247071 0.884055 6.18368 5.47506 -0.905672 0.485692 -67.337 -4.06983 32.2696 11.3069 -0.201091 0.618544 0.069591 1.01738 -9.91111 9.61414 -0.254739 3.48553 -21.9287 -32.1088 4.83896 -0.176263 -0.07068 1.26622 -0.213069 -0.0620434 -0.380441 1.04683 -0.546484 1.82182 -0.000332031 -0.000326217 7.30016e-005 0.993472 -0.621916 0.655506 -0.130766 -0.0384496 -0.232677 2.64253 0.566363 2.4162 0.473435 -0.22334 -0.457851 1.39394 -0.635138 0.899356 0.468743 -0.157591 -0.186754 0.622395 -0.856016 0.402182 0.521619 -0.175791 -0.207918 3.20814 0.514427 1.52547 2.53336 -0.989227 -1.00142 1.56545 -0.497974 0.68919 2.53442 -0.989722 -1.00181 0.679943 -1.17582 0.444246 2.53445 -0.989828 -1.00216 3.47877 0.200518 0.597719 2.55572 -3.93149 -5.51906 1.28208 -0.53155 0.44672 4.94597 -2.18906 -2.18361 0.710288 -0.970167 0.4032 4.9462 -2.18903 -2.18371 3.42483 -0.278904 -0.240415 11.6369 -5.5834 -4.29574 1.05787 -0.635999 0.156459 4.39489 -2.08268 -1.89961 0.42815 -0.754232 0.287187 3.23089 -1.51389 -1.40897 -4.17848 -1.02486 0.046356 3.9436 -30.9817 43.5842 1.27155 -17.465 -0.237699 24.7447 61.3117 -15.4898 0.529163 -17.3815 -1.19582 -5.50443 14.5305 -12.8045 -0.711591 -4.4863 4.0596 19.3924 -2.64035 -5.86471 4.17848 -1.02486 0.046356 -17.1656 7.69093 0.0139623 -1.27155 -17.465 -0.237699 0.341864 -3.10934 0.431596 -0.529163 -17.3815 -1.19582 7.38942 0.641351 -7.58732 0.711591 -4.4863 4.0596 5.91811 4.15026 -0.973478 
